<?xml version="1.0" encoding="utf-8"?>
<!-- Generator: Adobe Illustrator 16.0.0, SVG Export Plug-In . SVG Version: 6.00 Build 0)  -->
<!DOCTYPE svg PUBLIC "-//W3C//DTD SVG 1.1//EN" "http://www.w3.org/Graphics/SVG/1.1/DTD/svg11.dtd">
<svg version="1.1" id="레이어_1" xmlns="http://www.w3.org/2000/svg" xmlns:xlink="http://www.w3.org/1999/xlink" x="0px"
	 y="0px" width="1349px" height="2114px" viewBox="0 0 1349 2114" enable-background="new 0 0 1349 2114" xml:space="preserve">
<linearGradient id="SVGID_1_" gradientUnits="userSpaceOnUse" x1="-639.7664" y1="2202.4041" x2="235.4493" y2="1478.5842" gradientTransform="matrix(1 0 0 -1 376.8999 2751.0991)">
	<stop  offset="0" style="stop-color:#F7F8F8"/>
	<stop  offset="0.0376" style="stop-color:#EFF3F6"/>
	<stop  offset="0.5376" style="stop-color:#7FB7DC;stop-opacity:0.9"/>
	<stop  offset="1" style="stop-color:#187FC4;stop-opacity:0"/>
</linearGradient>
<path fill="url(#SVGID_1_)" d="M1349,1943.33V533.777c-48.097-33.321-99.566-61.633-154.03-84.667
	c-105.977-44.825-218.257-67.55-333.731-67.55c-47.006,0-94.419,5.8-158.537,19.394c-42.582,9.031-77.869,18.237-104.85,27.356
	c-4.219,1.425-8.538,2.688-12.825,3.75c-11.8,2.918-23.825,4.4-35.744,4.4c-51.256,0-100.119-26.726-127.513-69.757L188.294,0
	H-0.065v2114h252.103l19.515-12.621c14.582-9.438,28.313-18.438,41.594-27.149c33.9-22.226,63.175-41.426,86.419-54.463
	c13.36-7.495,20.091-10.319,22.455-11.213c0.664-0.038,1.67-0.074,3.057-0.074c9.18,0,43.167,1.805,113.166,23.729
	c105.611,42.613,208.779,63.377,314.522,63.377c2.912,0,5.618-0.02,8.112-0.031l1.131-0.006h-0.77
	c115.469,0,227.75-22.726,333.726-67.551C1249.43,2004.962,1300.902,1976.65,1349,1943.33z M861.239,1595.551
	c-19.601,0-68.904,2.437-149.55-32.75h-0.011C334.783,1437.848,203.229,1550.092,0,1681.541V635.24
	c147.777,232.102,430.987,350,705.1,282.19c17.66-4.37,35.291-9.509,52.841-15.44c13.369-4.519,81.47-20.43,103.3-20.43
	c197.159,0.001,356.999,159.831,356.999,357.001C1218.239,1435.721,1058.399,1595.551,861.239,1595.551z"/>
</svg>
